<svg version="1.1" id="Layer_1" xmlns="http://www.w3.org/2000/svg" xmlns:xlink="http://www.w3.org/1999/xlink" x="0px" y="0px"
	 width="100%" viewBox="0 0 672 1024" enable-background="new 0 0 672 1024" xml:space="preserve">
<path fill="#000000" opacity="1.000000" stroke="none" 
	d="
M320.702637,579.023560 
	C278.841919,582.957336 237.333115,580.340149 195.872650,580.907593 
	C182.821625,581.086243 182.816940,580.859558 182.809052,568.007690 
	C182.805069,561.507812 183.035400,554.997314 182.730301,548.511780 
	C182.515457,543.944580 184.120316,542.468201 188.711578,542.495850 
	C218.709793,542.676941 248.709869,542.525696 278.708618,542.651978 
	C322.380676,542.835876 363.463409,532.136963 402.279327,512.693420 
	C439.081238,494.258728 460.311584,463.621246 468.504120,423.838196 
	C474.755615,393.480743 472.444733,363.709961 457.704956,335.974823 
	C440.662811,303.907440 413.438812,285.801086 377.663116,280.234344 
	C372.518250,279.433777 367.392548,279.386871 362.234436,279.387787 
	C332.901825,279.392944 303.568878,279.319427 274.236725,279.435974 
	C262.744354,279.481628 251.250427,279.858276 239.763153,280.255920 
	C229.965179,280.595123 221.364044,290.210815 221.329941,300.982361 
	C221.244461,327.981415 221.309616,354.980957 221.308182,381.980286 
	C221.306549,412.812866 221.274643,443.645447 221.309479,474.477966 
	C221.318115,482.126251 225.680252,486.832458 233.245544,486.868378 
	C255.910187,486.976074 278.597382,487.466614 301.235504,486.667053 
	C326.934662,485.759399 349.060944,475.180969 367.455872,457.559143 
	C385.258545,440.504669 402.267853,422.622040 419.630127,405.107605 
	C420.987946,403.737946 422.061340,401.982666 424.495300,401.254639 
	C425.982758,406.046722 425.487915,410.692291 425.097870,415.186646 
	C422.922089,440.255676 412.288422,461.546661 395.107941,479.579803 
	C371.089172,504.790649 341.425995,518.906616 307.023010,523.423645 
	C284.443848,526.388245 261.775269,524.957031 239.154327,524.673462 
	C222.491394,524.464600 205.830170,524.594299 189.169693,524.377686 
	C182.860474,524.295654 182.798325,524.301941 182.797943,517.933838 
	C182.792572,427.769348 182.829315,337.604767 182.690826,247.440475 
	C182.683090,242.409760 184.136642,240.831177 189.189056,240.836258 
	C248.353882,240.895706 307.539062,239.758270 366.678375,240.948700 
	C430.766296,242.238754 486.230743,282.563934 503.511078,345.092438 
	C517.268311,394.872772 512.037170,442.882263 485.677856,487.683716 
	C467.841187,517.999695 440.802582,538.242615 409.471954,553.149902 
	C381.425507,566.494507 351.786133,574.448486 320.702637,579.023560 
z"/>
<path fill="#000000" opacity="1.000000" stroke="none" 
	d="
M279.579285,414.420227 
	C271.223816,406.255646 263.158112,398.299774 255.000076,390.439728 
	C246.656509,382.400940 246.567261,373.437164 254.904831,365.254303 
	C257.639679,362.570282 260.431335,359.943878 263.209747,357.304535 
	C270.049255,350.807434 277.072052,350.669952 283.894440,357.307617 
	C294.761993,367.880798 305.444672,378.644104 316.193787,389.338867 
	C321.671204,394.788635 321.658661,394.799347 327.051575,389.391327 
	C347.757782,368.627014 368.458405,347.857147 389.174835,327.102997 
	C396.265350,319.999573 404.119354,319.896240 411.640472,326.753510 
	C414.102325,328.998047 416.607117,331.198151 419.009308,333.505005 
	C428.192749,342.324097 428.401245,351.105316 419.049500,359.636200 
	C404.018280,373.347992 390.012482,388.083344 375.591339,402.403168 
	C361.757385,416.140015 347.775360,429.747772 334.437683,443.956024 
	C327.524445,451.320465 314.997498,450.512848 309.055664,444.115540 
	C299.649597,433.988281 289.603699,424.455383 279.579285,414.420227 
z"/>
<path fill="#000000" opacity="1.000000" stroke="none" 
	d="
M192.868256,726.682007 
	C183.202667,743.636902 167.788025,749.943115 149.753754,750.895935 
	C138.287811,751.501709 126.762230,750.896240 115.267143,751.075012 
	C110.921165,751.142639 109.559883,749.509033 109.581375,745.189026 
	C109.731422,715.028748 109.729248,684.866882 109.576370,654.706604 
	C109.554695,650.430054 110.755882,648.705383 115.200211,648.843018 
	C129.838898,649.296387 144.540985,647.585510 159.125595,649.714844 
	C182.439651,653.118652 196.240463,668.300171 198.505096,691.873535 
	C199.664673,703.943909 198.389999,715.417114 192.868256,726.682007 
M141.398254,668.399719 
	C139.735138,668.401245 138.066437,668.490540 136.410156,668.385010 
	C133.484940,668.198547 132.206375,669.348816 132.220428,672.413208 
	C132.303604,690.540710 132.308563,708.668823 132.238693,726.796448 
	C132.226700,729.903625 133.602097,730.863831 136.487747,730.768250 
	C141.140381,730.614136 145.810776,730.854065 150.454041,730.586670 
	C162.256973,729.906921 171.786591,721.977661 174.566452,710.774170 
	C175.986221,705.052124 176.139023,699.211548 175.523254,693.428772 
	C174.072769,679.807312 165.998444,670.735657 154.259048,669.282593 
	C150.306427,668.793335 146.306610,668.685364 141.398254,668.399719 
z"/>
<path fill="#000000" opacity="1.000000" stroke="none" 
	d="
M248.000000,751.035522 
	C238.166977,751.030273 228.832153,750.916016 219.501740,751.069641 
	C215.411774,751.136963 213.923080,749.504150 213.934387,745.446472 
	C214.019318,714.947632 214.016098,684.448242 213.902451,653.949524 
	C213.886810,649.753113 215.552322,648.565857 219.565842,648.603027 
	C237.397171,648.768433 255.231888,648.783630 273.062927,648.606506 
	C277.248413,648.564880 278.440247,650.018860 278.444153,654.093872 
	C278.458466,668.981201 278.588531,668.977661 263.921967,668.982117 
	C256.255737,668.984436 248.588699,669.071533 240.923706,668.979492 
	C237.495483,668.938354 236.375778,670.364502 236.300705,673.781433 
	C235.950333,689.724915 235.861862,689.722168 251.621170,689.708923 
	C257.287689,689.704163 262.965088,689.918762 268.617096,689.631592 
	C272.835510,689.417297 274.896454,690.604004 274.405762,695.182678 
	C274.105652,697.982971 274.151276,700.863464 274.421356,703.671509 
	C274.833740,707.959167 273.356079,709.600952 268.843933,709.449036 
	C259.687958,709.140625 250.512466,709.466125 241.348755,709.310242 
	C237.760345,709.249207 236.107162,710.405579 236.318024,714.181885 
	C236.531387,718.003235 236.561813,721.858521 236.311859,725.675415 
	C236.056122,729.580139 237.500488,730.985779 241.457016,730.897522 
	C252.452087,730.652039 263.459229,730.900879 274.451324,730.590637 
	C278.994598,730.462402 280.482849,731.900330 280.448700,736.524475 
	C280.341553,751.024231 280.516724,751.026550 265.999664,751.034424 
	C260.166443,751.037598 254.333221,751.035156 248.000000,751.035522 
z"/>
<path fill="#000000" opacity="1.000000" stroke="none" 
	d="
M560.990479,751.028809 
	C545.506592,751.026550 530.519104,750.912842 515.535034,751.090332 
	C511.053101,751.143433 509.462769,749.706604 509.495361,745.050842 
	C509.680878,718.586792 509.582733,692.120789 509.558960,665.655396 
	C509.555084,661.334351 509.424377,657.013550 509.383453,652.692322 
	C509.355774,649.766296 510.838623,648.667969 513.751587,648.679260 
	C532.234253,648.750916 550.717407,648.745544 569.200073,648.683044 
	C572.225708,648.672791 573.340576,649.965820 573.281799,652.894531 
	C572.900574,671.890930 576.194397,668.683594 558.372375,668.974365 
	C551.047729,669.093872 543.717224,669.097778 536.393860,668.943115 
	C532.871033,668.868713 531.389771,669.930908 531.331177,673.766602 
	C531.087524,689.702698 530.972778,689.701904 547.096680,689.708008 
	C552.924622,689.710205 558.755005,689.807312 564.579529,689.666382 
	C567.888672,689.586304 569.265198,690.682617 569.393555,694.228760 
	C569.941040,709.354614 570.043701,709.351990 554.812378,709.359680 
	C548.484863,709.362854 542.155457,709.453125 535.830688,709.321045 
	C532.661316,709.254883 531.228760,710.396790 531.372986,713.681702 
	C531.533508,717.337769 531.660400,721.029602 531.335754,724.664185 
	C530.914246,729.382019 532.472534,731.115906 537.438477,730.930725 
	C548.248413,730.527771 559.083679,730.855591 569.901917,730.600159 
	C573.958130,730.504333 575.858765,731.763489 575.336792,735.968750 
	C575.194397,737.116394 575.342590,738.297668 575.317749,739.462708 
	C575.047058,752.138123 577.529968,750.914001 563.486633,751.030334 
	C562.820557,751.035828 562.154358,751.029663 560.990479,751.028809 
z"/>
<path fill="#000000" opacity="1.000000" stroke="none" 
	d="
M472.000000,648.678772 
	C478.494232,648.685303 484.490784,648.794128 490.481781,648.657837 
	C493.786102,648.582703 495.465393,649.639709 495.290527,653.214722 
	C495.103638,657.035645 495.119995,660.875916 495.256653,664.700317 
	C495.381470,668.192871 493.783295,669.405457 490.436920,669.323547 
	C484.779175,669.184998 479.098083,669.566895 473.459564,669.211060 
	C468.739044,668.913086 467.138000,670.358276 467.190704,675.296875 
	C467.437561,698.438660 467.191376,721.585510 467.389771,744.728210 
	C467.430115,749.431946 466.103790,751.506409 461.212555,751.086792 
	C457.741241,750.788940 454.203247,750.780579 450.732574,751.079468 
	C445.790375,751.505249 444.543945,749.330139 444.582336,744.673157 
	C444.773010,721.530273 444.571594,698.384216 444.758148,675.241211 
	C444.794037,670.790527 443.702179,668.904724 438.924133,669.195068 
	C432.786469,669.567993 426.606628,669.187683 420.448303,669.305786 
	C417.289551,669.366272 416.066498,668.103882 415.859558,664.929382 
	C414.799164,648.662292 414.736847,648.664856 431.038666,648.666931 
	C444.525787,648.668701 458.012878,648.674622 472.000000,648.678772 
z"/>
<path fill="#000000" opacity="1.000000" stroke="none" 
	d="
M330.082062,730.762573 
	C339.232239,730.728210 347.896240,730.791748 356.556183,730.634094 
	C359.930511,730.572632 361.474396,731.738098 361.310913,735.248596 
	C361.132874,739.072083 361.160950,742.912659 361.280273,746.740173 
	C361.374146,749.751648 359.962860,750.979309 357.103058,750.977905 
	C338.945435,750.969055 320.787781,750.971252 302.630157,750.979614 
	C299.619385,750.981018 298.672943,749.399475 298.677032,746.539734 
	C298.721344,715.554504 298.731842,684.569031 298.627869,653.584045 
	C298.615906,650.011780 300.152802,648.861755 303.406860,648.920227 
	C307.569946,648.995056 311.744476,649.090027 315.897766,648.869385 
	C320.044067,648.649109 321.388580,650.383728 321.359558,654.450745 
	C321.217926,674.273621 321.298828,694.098145 321.301788,713.922058 
	C321.302185,716.754028 321.304413,719.586060 321.309570,722.418030 
	C321.324951,730.854858 321.325684,730.854858 330.082062,730.762573 
z"/>
<path fill="#000000" opacity="1.000000" stroke="none" 
	d="
M400.343018,743.892212 
	C400.238770,750.981445 400.238831,750.993591 393.625488,751.021851 
	C389.793823,751.038208 385.961456,750.967041 382.130310,751.011658 
	C379.057190,751.047424 377.641571,749.807678 377.648254,746.540344 
	C377.711792,715.385803 377.708740,684.231018 377.635376,653.076538 
	C377.627533,649.747131 379.075134,648.689819 382.168671,648.788269 
	C386.162872,648.915466 390.184601,649.058594 394.157776,648.738831 
	C398.922913,648.355286 400.475311,650.084534 400.441803,654.941467 
	C400.242798,683.762390 400.342010,712.585327 400.341125,741.407593 
	C400.341095,742.074036 400.342651,742.740417 400.343018,743.892212 
z"/>
</svg>