<svg width="329" height="342" viewBox="0 0 329 342" fill="none" xmlns="http://www.w3.org/2000/svg">
<path d="M138.703 339.024C96.8419 342.957 55.3331 340.34 13.8727 340.908C0.821625 341.086 0.81694 340.86 0.809052 328.008C0.805069 321.508 1.0354 314.997 0.730301 308.512C0.515457 303.945 2.12032 302.468 6.71158 302.496C36.7098 302.677 66.7099 302.526 96.7086 302.652C140.381 302.836 181.463 292.137 220.279 272.693C257.081 254.259 278.312 223.621 286.504 183.838C292.756 153.481 290.445 123.71 275.705 95.9748C258.663 63.9074 231.439 45.8011 195.663 40.2343C190.518 39.4338 185.393 39.3869 180.234 39.3878C150.902 39.3929 121.569 39.3194 92.2367 39.436C80.7444 39.4816 69.2504 39.8583 57.7632 40.2559C47.9652 40.5951 39.364 50.2108 39.3299 60.9824C39.2445 87.9814 39.3096 114.981 39.3082 141.98C39.3065 172.813 39.2746 203.645 39.3095 234.478C39.3181 242.126 43.6803 246.832 51.2455 246.868C73.9102 246.976 96.5974 247.467 119.236 246.667C144.935 245.759 167.061 235.181 185.456 217.559C203.259 200.505 220.268 182.622 237.63 165.108C238.988 163.738 240.061 161.983 242.495 161.255C243.983 166.047 243.488 170.692 243.098 175.187C240.922 200.256 230.288 221.547 213.108 239.58C189.089 264.791 159.426 278.907 125.023 283.424C102.444 286.388 79.7753 284.957 57.1543 284.673C40.4914 284.465 23.8302 284.594 7.16969 284.378C0.860474 284.296 0.798325 284.302 0.797943 277.934C0.792572 187.769 0.829316 97.6048 0.690827 7.44047C0.683091 2.40976 2.13664 0.831174 7.18906 0.836255C66.3539 0.895703 125.539 -0.241733 184.678 0.948697C248.766 2.23875 304.231 42.5639 321.511 105.092C335.268 154.873 330.037 202.882 303.678 247.684C285.841 278 258.803 298.243 227.472 313.15C199.426 326.495 169.786 334.448 138.703 339.024Z" fill="black"/>
<path d="M97.5793 174.42C89.2238 166.256 81.1581 158.3 73.0001 150.44C64.6565 142.401 64.5673 133.437 72.9048 125.254C75.6397 122.57 78.4313 119.944 81.2098 117.305C88.0493 110.807 95.0721 110.67 101.894 117.308C112.762 127.881 123.445 138.644 134.194 149.339C139.671 154.789 139.659 154.799 145.052 149.391C165.758 128.627 186.458 107.857 207.175 87.103C214.265 79.9996 222.119 79.8963 229.64 86.7535C232.102 88.9981 234.607 91.1982 237.009 93.505C246.193 102.324 246.401 111.105 237.049 119.636C222.018 133.348 208.012 148.083 193.591 162.403C179.757 176.14 165.775 189.748 152.438 203.956C145.524 211.321 132.998 210.513 127.056 204.116C117.65 193.988 107.604 184.455 97.5793 174.42Z" fill="black"/>
</svg>
